<?xml version="1.0" encoding="utf-8"?>
<!-- Generator: Adobe Illustrator 23.0.1, SVG Export Plug-In . SVG Version: 6.00 Build 0)  -->
<svg version="1.1" id="Layer_1" xmlns="http://www.w3.org/2000/svg" xmlns:xlink="http://www.w3.org/1999/xlink" x="0px" y="0px"
	 viewBox="0 0 68.8 165.3" style="enable-background:new 0 0 68.8 165.3;" xml:space="preserve">
<style type="text/css">
	.st0{opacity:0.7;fill:#010101;}
</style>
<title>Font_Web</title>
<path class="st0" d="M15.6,160.4c-9.7-9.2-14.3-28.5-14.3-50.7c0-47,21.1-108.8,60.3-108.8C28.8,15.9,7.3,79.7,7.3,123.1
	C7.4,138.8,9.7,152.2,15.6,160.4z"/>
<path class="st0" d="M68.2,158.8c-0.8,0.6-1.6,1.1-2.4,1.6c-4.2,2.1-9,3.1-13.7,2.7c-3.8-0.3-7.5-1.2-11-2.9c-2.5-1.1-5-2.6-7.6-3.5
	s-5.3-1.4-8-1.6c-1.4-0.2-2.8-0.3-4.3-0.3c6.2-2.3,9.1-2.2,11.4-2c3.3,0.4,6.5,1.2,9.6,2.4c4.1,1.4,9.2,3.2,14.5,3.9
	C60.7,159.3,64.5,159.3,68.2,158.8"/>
</svg>
