<?xml version="1.0" encoding="utf-8"?>
<!-- Generator: Adobe Illustrator 23.0.1, SVG Export Plug-In . SVG Version: 6.00 Build 0)  -->
<svg version="1.1" id="Layer_1" xmlns="http://www.w3.org/2000/svg" xmlns:xlink="http://www.w3.org/1999/xlink" x="0px" y="0px"
	 viewBox="0 0 70.1 82" style="enable-background:new 0 0 70.1 82;" xml:space="preserve">
<style type="text/css">
	.st0{opacity:0.7;fill:#020203;enable-background:new    ;}
</style>
<path class="st0" d="M6.8,64.2c-0.1-0.2,0-0.5,0.1-0.7c1.1-2.9,2.3-5.8,3.4-8.7c1.4-3.4,2.7-6.9,4.1-10.3c1.4-3.4,2.7-6.9,4-10.3
	c0-0.1,0-0.2,0.1-0.3c-1.4,0-2.7-0.1-4.1-0.1c0.7-1.6,1.2-3.2,2-4.8c1.1-2.2,2.1-4.5,3.4-6.6c1.3-2.2,2.8-4.3,4.4-6.3
	c1.8-2.3,3.8-4.4,6-6.3c2.6-2.3,5.5-4.2,8.8-5.5c1.6-0.6,3.2-1.1,4.9-1.3c2-0.3,4.1-0.3,6,0.2c1.7,0.4,3.3,1.1,4.8,2.1
	c3.2,2.1,5.3,5,6.7,8.3c0.5,1.1,0.8,2.2,1.3,3.3c0.1,0.3,0.3,0.7,0.4,1c0-0.1,0-0.2-0.1-0.4c-0.3-1.3-0.6-2.6-1-3.9
	c-0.6-1.7-1.3-3.4-2.3-5c-0.9-1.5-2-2.9-3.4-4.1c-2.2-2-4.9-3.3-8-3.9c-1.6-0.3-3.3-0.4-4.9-0.3c-1.9,0.1-3.7,0.5-5.5,1.1
	c-1.5,0.5-3.1,1.1-4.5,1.8c-4.3,2-8,4.8-11.3,8c-1.5,1.5-3,3-4.4,4.6c-1.4,1.7-2.7,3.4-4,5.2c-1.9,2.5-3.4,5.2-4.8,8
	c-0.7,1.3-1.3,2.7-2,4.1c-0.2,0.4-0.4,0.4-0.8,0.4c-1.8-0.1-3.7-0.1-5.5-0.2c-0.1,0-0.2,0-0.4,0c0,0.2,0.1,0.4,0.1,0.5
	c0.4,2,0.9,4.1,1.3,6.1c0.6,2.8,1.1,5.6,1.7,8.4c0.7,3.5,1.4,6.9,2.1,10.4"/>
<path class="st0" d="M63.2,17.9c0.1,0.2,0,0.5-0.1,0.7c-1.1,2.9-2.3,5.8-3.4,8.7c-1.4,3.4-2.7,6.9-4.1,10.3c-1.4,3.4-2.7,6.9-4,10.3
	c0,0.1,0,0.2-0.1,0.3c1.4,0,2.7,0.1,4.1,0.1c-0.7,1.6-1.2,3.2-2,4.8c-1.1,2.2-2.1,4.5-3.4,6.6c-1.3,2.2-2.8,4.3-4.4,6.3
	c-1.8,2.3-3.8,4.4-6,6.3c-2.6,2.3-5.5,4.2-8.8,5.5c-1.6,0.6-3.2,1.1-4.9,1.3c-2,0.3-4.1,0.3-6-0.2c-1.7-0.4-3.3-1.1-4.8-2.1
	c-3.2-2.1-5.3-5-6.7-8.3c-0.5-1.1-0.8-2.2-1.3-3.3c-0.1-0.3-0.3-0.7-0.4-1c0,0.1,0,0.2,0.1,0.4c0.3,1.3,0.6,2.6,1,3.9
	c0.6,1.7,1.3,3.4,2.3,5c0.9,1.5,2,2.9,3.4,4.1c2.2,2,4.9,3.3,8,3.9c1.6,0.3,3.3,0.4,4.9,0.3c1.9-0.1,3.7-0.5,5.5-1.1
	c1.5-0.5,3.1-1.1,4.5-1.8c4.3-2,8-4.8,11.3-8c1.5-1.5,3-3,4.4-4.6c1.4-1.7,2.7-3.4,4-5.2c1.9-2.5,3.4-5.2,4.8-8
	c0.7-1.3,1.3-2.7,2-4.1c0.2-0.4,0.4-0.4,0.8-0.4c1.8,0.1,3.7,0.1,5.5,0.2c0.1,0,0.2,0,0.4,0c0-0.2-0.1-0.4-0.1-0.5
	c-0.4-2-0.9-4.1-1.3-6.1c-0.6-2.8-1.1-5.6-1.7-8.4c-0.7-3.5-1.4-6.9-2.1-10.4"/>
</svg>
