<?xml version="1.0" encoding="utf-8"?>
<!-- Generator: Adobe Illustrator 23.0.1, SVG Export Plug-In . SVG Version: 6.00 Build 0)  -->
<svg version="1.1" id="Layer_1" xmlns="http://www.w3.org/2000/svg" xmlns:xlink="http://www.w3.org/1999/xlink" x="0px" y="0px"
	 viewBox="0 0 84.8 223.2" style="enable-background:new 0 0 84.8 223.2;" xml:space="preserve">
<style type="text/css">
	.st0{opacity:0.7;fill:#010101;stroke:#FFFFFF;stroke-width:0.25;stroke-miterlimit:10;}
	.st1{opacity:0.7;fill:#010101;}
</style>
<title>Font_Web</title>
<path class="st0" d="M50.8,221.7c-5.8-17.7-12-57.1-12-79.3c0-55.9,14.3-101.3,30.4-126.6c4-6,8.6-11.1,13.6-15.3
	c-3.1,3.1-5.9,6.8-8.3,11c-3.3,6.1-6,12.7-8,19.7c-4,13.5-7,27.6-8.8,41.9c-2,16-3,32.2-2.8,48.3c0.1,8.5,0.4,17.2,0.6,25.7
	c0.2,9.9,0.1,19.7,0.3,29.6c0.2,7.3,0.5,14.7-0.2,21.9C54.9,206.7,53.2,214.6,50.8,221.7z"/>
<path class="st1" d="M10.5,82.4c0,7.6,0.5,14,2.9,17.9c-7.3-4-9.7-13.1-9.7-24c0-17.9,4.8-38.1,4.8-55.7c0-5.2-0.5-9.1-2.2-11.9
	c5.4,2.8,7.5,10.7,7.5,20.7C13.7,46.7,10.5,66.2,10.5,82.4z"/>
</svg>
