<?xml version="1.0" encoding="utf-8"?>
<!-- Generator: Adobe Illustrator 23.0.1, SVG Export Plug-In . SVG Version: 6.00 Build 0)  -->
<svg version="1.1" id="Layer_1" xmlns="http://www.w3.org/2000/svg" xmlns:xlink="http://www.w3.org/1999/xlink" x="0px" y="0px"
	 viewBox="0 0 63.8 180" style="enable-background:new 0 0 63.8 180;" xml:space="preserve">
<style type="text/css">
	.st0{opacity:0.7;fill:#010101;}
</style>
<title>Font_Web</title>
<path class="st0" d="M6.2,55.6C9.6,27.9,11,14.8,11,7.2c0-1.1,0-2.1,0-3.1c3,8.1,5.1,20.8,5.1,33.3c0,20.8-3.4,49.5-6.3,71.8
	C7.4,127.6,5,145.6,5,157.9c0,2.1,0.1,4.1,0.3,6.1c-2.8-9.5-3.9-24-3.9-40.5C1.4,102.3,3.5,77.1,6.2,55.6z"/>
<path class="st0" d="M48.8,175.3c-6.6-4.1-10.7-15-10.7-34.1c0.5-20.5,5.6-55.6,9.8-82.8c0.4-2.8,0.8-5.5,1.2-8.1l0.3-2.6
	c2-13.6,4.9-29,5.8-38.7c0.1-2.3,1.9-3.1,3-3.2c1.4-0.1,4.1,0.9,4.2,2.8v0.9c-0.3,9.9-3.8,29.5-7.1,50c-7.4,45.9-11,78.6-11.8,93.8
	C43.5,163.2,44.7,171.1,48.8,175.3z"/>
</svg>
