<?xml version="1.0" encoding="utf-8"?>
<!-- Generator: Adobe Illustrator 23.0.1, SVG Export Plug-In . SVG Version: 6.00 Build 0)  -->
<svg version="1.1" id="Layer_1" xmlns="http://www.w3.org/2000/svg" xmlns:xlink="http://www.w3.org/1999/xlink" x="0px" y="0px"
	 viewBox="0 0 38.8 180" style="enable-background:new 0 0 38.8 180;" xml:space="preserve">
<style type="text/css">
	.st0{opacity:0.7;fill:#010101;}
</style>
<title>Font_Web</title>
<path class="st0" d="M38.5,0.8c-1.8,2.6-3.4,5.5-4.9,8.5c-3.7,7.8-5.8,17-7.6,26.1c-3.9,18.2-6.9,36.8-9.2,55.6
	c-1.7,14.7-2.9,29.6-4.9,44.5c-0.8,5.9-1.7,11.7-1.5,17.7c0.1,4.8,1,9.4,2.6,13.6c2.1,5.1,5,9.3,8.5,12.2
	c-12-1.5-19.4-10.9-20.8-28.9c0-1.3,0-2.6,0.1-4c0.1-3.8,0.3-7.6,0.7-11.4C7.3,83.1,15.3,14.8,38.5,0.8z"/>
</svg>
